<?xml version="1.0" standalone="no"?>
<!DOCTYPE svg PUBLIC "-//W3C//DTD SVG 20010904//EN"
 "http://www.w3.org/TR/2001/REC-SVG-20010904/DTD/svg10.dtd">
<svg version="1.0" xmlns="http://www.w3.org/2000/svg"
 width="300.000000pt" height="300.000000pt" viewBox="0 0 300.000000 300.000000"
 preserveAspectRatio="xMidYMid meet">
<metadata>
Created by potrace 1.10, written by Peter Selinger 2001-2011
</metadata>
<g transform="translate(0.000000,300.000000) scale(0.100000,-0.100000)"
fill="#000000" stroke="none">
<path d="M1172 2214 c-84 -42 -142 -134 -142 -226 0 -48 30 -134 68 -196 26
-43 32 -47 66 -45 59 2 66 14 66 114 0 104 4 109 99 109 86 0 101 -17 101
-112 0 -40 5 -80 10 -88 6 -11 33 -16 92 -18 46 -2 89 -9 96 -14 8 -7 12 -42
12 -109 0 -67 -4 -100 -12 -106 -7 -4 -53 -10 -103 -13 l-90 -5 -3 -31 c-3
-28 3 -36 47 -68 l50 -37 73 58 c101 80 261 236 315 308 138 181 144 332 19
442 -50 44 -101 63 -168 63 -89 0 -176 -50 -215 -123 -19 -37 -6 -50 15 -17
96 149 306 151 397 5 26 -42 30 -58 30 -119 0 -58 -6 -82 -30 -131 -16 -33
-28 -63 -27 -67 1 -5 -2 -8 -7 -8 -5 0 -14 -13 -21 -30 -7 -16 -18 -34 -26
-40 -8 -7 -6 4 6 28 23 47 41 120 31 126 -4 3 -8 -8 -9 -24 -4 -57 -62 -148
-149 -235 -47 -46 -88 -83 -92 -81 -3 2 -5 44 -5 93 2 137 -19 163 -130 163
-74 0 -72 -4 -79 104 -3 49 -8 63 -31 83 -23 20 -38 23 -101 23 -41 0 -77 -5
-80 -10 -4 -6 -10 -8 -15 -5 -11 7 -22 -39 -27 -110 -4 -65 -25 -103 -43 -75
-5 8 -10 39 -10 68 0 65 27 121 77 159 32 25 45 28 108 28 59 0 77 -4 107 -24
20 -14 43 -36 52 -50 8 -14 16 -21 16 -14 0 20 -48 70 -84 87 -46 22 -131 20
-183 -4 -29 -13 -53 -34 -74 -67 -29 -46 -30 -52 -27 -130 3 -46 3 -83 1 -83
-2 0 -20 33 -40 73 -33 64 -37 80 -37 152 -1 89 10 115 73 172 109 100 256 74
355 -62 21 -29 30 -12 12 23 -22 42 -88 97 -135 110 -66 20 -141 15 -199 -14z
m426 -751 c-13 -14 -36 -31 -51 -39 -26 -14 -29 -13 -60 17 -38 39 -30 44 69
46 l65 0 -23 -24z"/>
<path d="M1632 2044 c-34 -18 -92 -77 -92 -96 0 -6 13 7 29 29 16 22 45 47 64
56 39 19 122 22 161 7 40 -15 100 -82 113 -125 12 -39 12 -39 7 -5 -6 44 -37
90 -82 121 -45 31 -151 38 -200 13z"/>
<path d="M1070 1243 c0 -99 1 -103 21 -103 20 0 21 4 16 45 -4 24 -3 47 2 49
9 6 61 -66 61 -84 0 -5 12 -10 26 -10 26 0 26 1 10 25 -52 80 -49 73 -27 85
24 12 29 61 9 78 -7 5 -37 12 -66 13 l-52 4 0 -102z m89 59 c12 -23 -4 -42
-35 -42 -19 0 -22 5 -19 28 2 15 4 28 4 30 3 11 42 -2 50 -16z"/>
<path d="M1234 1266 c2 -104 17 -126 81 -126 61 0 73 18 76 120 3 70 1 85 -11
85 -12 0 -16 -18 -18 -83 -3 -77 -5 -84 -27 -94 -21 -9 -29 -8 -45 7 -17 15
-20 31 -20 97 0 70 -2 78 -19 78 -18 0 -19 -7 -17 -84z"/>
<path d="M1430 1243 l0 -103 56 0 c49 0 59 4 86 30 28 28 30 35 26 81 -7 67
-24 82 -103 89 l-65 5 0 -102z m110 57 c25 -25 27 -86 3 -112 -9 -10 -29 -18
-45 -18 l-28 0 0 75 c0 73 1 75 25 75 14 0 34 -9 45 -20z"/>
<path d="M1630 1345 c-1 0 -2 -46 -3 -103 -2 -98 -1 -102 19 -102 19 0 21 4
17 44 -8 63 11 66 44 7 26 -47 31 -51 66 -51 34 0 38 3 44 30 5 26 10 30 38
30 28 0 35 -5 44 -30 7 -20 17 -30 30 -30 12 0 21 1 21 3 0 1 -17 47 -38 102
-23 61 -43 100 -51 100 -9 0 -26 -34 -45 -92 -17 -50 -34 -94 -37 -98 -3 -3
-18 13 -33 36 l-28 41 21 22 c24 25 27 58 9 74 -10 7 -76 17 -118 17z m78 -34
c23 -14 10 -46 -21 -49 -24 -3 -27 0 -27 27 0 32 19 41 48 22z m162 -33 c0 -7
3 -22 6 -33 4 -16 0 -21 -15 -21 -22 0 -24 7 -15 44 7 23 24 31 24 10z"/>
<path d="M270 1045 c-3 -5 -3 -28 1 -50 3 -22 7 -30 8 -17 1 29 41 32 41 2 0
-11 3 -20 8 -20 9 0 8 78 -2 87 -3 3 -6 -3 -6 -15 0 -31 -37 -30 -42 1 -2 12
-5 18 -8 12z"/>
<path d="M362 1038 c-13 -13 -15 -37 -6 -62 9 -22 51 -20 64 3 14 27 13 37 -6
55 -19 19 -36 20 -52 4z m48 -32 c0 -32 -18 -43 -37 -23 -20 20 -10 47 17 47
15 0 20 -7 20 -24z"/>
<path d="M441 1003 c1 -42 2 -44 9 -18 l7 30 7 -27 c5 -16 12 -28 17 -28 5 0
12 12 16 28 l7 27 7 -30 c6 -26 7 -23 8 18 0 26 -1 47 -4 47 -3 0 -12 -15 -20
-32 l-14 -33 -11 33 c-17 46 -30 39 -29 -15z"/>
<path d="M540 1005 c0 -44 1 -45 33 -44 27 1 29 2 9 7 -28 8 -30 24 -5 33 17
7 17 8 1 8 -22 1 -24 21 -3 21 8 0 15 5 15 10 0 6 -11 10 -25 10 -23 0 -25 -4
-25 -45z"/>
<path d="M644 1037 c-2 -7 -6 -27 -7 -43 -2 -27 0 -29 38 -31 22 -1 34 0 28 3
-7 3 -13 13 -13 22 -1 15 -2 15 -15 -2 -13 -18 -41 -14 -29 5 3 5 9 7 14 4 9
-6 21 35 14 47 -8 12 -24 10 -30 -5z"/>
<path d="M740 1005 c0 -25 5 -45 10 -45 6 0 10 9 10 20 0 29 37 27 43 -2 2
-13 4 0 4 27 0 28 -2 40 -4 28 -6 -30 -43 -32 -43 -3 0 11 -4 20 -10 20 -5 0
-10 -20 -10 -45z"/>
<path d="M841 1036 c-7 -8 -11 -27 -9 -43 3 -24 8 -28 33 -28 25 0 30 4 33 28
4 30 -12 57 -33 57 -7 0 -18 -6 -24 -14z m44 -36 c0 -29 -32 -41 -41 -16 -9
24 4 48 23 44 12 -2 18 -12 18 -28z"/>
<path d="M920 1036 c-9 -12 -7 -18 9 -33 27 -22 26 -31 -1 -36 -20 -4 -20 -4
4 -6 36 -1 46 18 20 40 -26 20 -28 29 -7 29 8 0 15 5 15 10 0 15 -26 12 -40
-4z"/>
<path d="M980 1005 c0 -25 5 -45 10 -45 6 0 10 5 10 11 0 6 10 19 22 29 19 15
20 20 9 34 -7 9 -22 16 -32 16 -16 0 -19 -8 -19 -45z"/>
<path d="M1050 1007 c0 -26 4 -47 9 -47 10 0 7 77 -3 87 -3 4 -6 -15 -6 -40z"/>
<path d="M1080 1040 c0 -5 5 -10 10 -10 6 0 10 -16 10 -35 0 -19 5 -35 10 -35
7 0 8 13 4 35 -5 28 -3 35 10 35 9 0 16 5 16 10 0 6 -13 10 -30 10 -16 0 -30
-4 -30 -10z"/>
<path d="M1158 1005 c-18 -47 -15 -57 8 -27 13 16 15 16 28 0 22 -29 26 -21
10 20 -23 55 -28 56 -46 7z"/>
<path d="M1230 1046 c-3 -3 -4 -23 -2 -45 4 -37 7 -41 31 -40 22 2 23 2 4 6
-18 3 -23 12 -25 45 -2 22 -5 37 -8 34z"/>
<path d="M1320 1050 c-7 -16 -7 -90 1 -90 5 0 9 9 9 20 0 29 37 27 43 -2 2
-13 4 0 4 27 0 28 -2 40 -4 28 -3 -14 -12 -23 -23 -23 -11 0 -20 9 -23 23 -2
12 -5 20 -7 17z"/>
<path d="M1400 1005 l0 -45 40 0 c29 0 40 4 40 15 0 8 7 15 15 15 8 0 15 -7
15 -15 0 -8 5 -15 11 -15 10 0 7 16 -12 68 -11 29 -25 21 -34 -19 -8 -33 -25
-45 -52 -34 -17 6 -17 7 1 21 17 12 18 14 3 14 -9 0 -17 5 -17 10 0 6 9 10 20
10 11 0 20 5 20 10 0 6 -11 10 -25 10 -23 0 -25 -4 -25 -45z"/>
<path d="M1540 1005 c0 -44 0 -45 33 -44 23 1 26 3 10 6 -19 4 -23 11 -23 44
0 21 -4 39 -10 39 -5 0 -10 -20 -10 -45z"/>
<path d="M1600 1040 c0 -5 5 -10 10 -10 6 0 10 -16 10 -35 0 -19 5 -35 10 -35
6 0 10 16 10 35 0 19 5 35 10 35 6 0 10 5 10 10 0 6 -13 10 -30 10 -16 0 -30
-4 -30 -10z"/>
<path d="M1670 1005 c0 -25 5 -45 10 -45 6 0 10 9 10 20 0 29 37 27 43 -2 2
-13 4 0 4 27 0 28 -2 40 -4 28 -6 -30 -43 -32 -43 -3 0 11 -4 20 -10 20 -5 0
-10 -20 -10 -45z"/>
<path d="M1796 1034 c-19 -18 -20 -28 -6 -55 10 -19 60 -28 60 -11 0 5 -10 8
-22 8 -33 -1 -33 48 0 52 12 2 20 8 17 13 -9 14 -32 11 -49 -7z"/>
<path d="M1874 1015 c-18 -45 -18 -64 1 -39 14 18 16 18 29 2 22 -30 26 -20 9
27 -8 25 -17 45 -19 45 -3 0 -12 -16 -20 -35z"/>
<path d="M1941 1003 c1 -26 4 -38 6 -25 5 27 20 29 28 2 3 -11 11 -20 16 -20
6 0 7 6 2 12 -4 7 -7 26 -8 43 0 23 -5 31 -22 33 -21 3 -23 0 -22 -45z"/>
<path d="M2010 1005 c0 -44 0 -45 33 -44 30 2 30 2 5 6 -31 5 -38 29 -10 36
16 4 16 5 0 6 -25 1 -23 21 2 21 11 0 20 5 20 10 0 6 -11 10 -25 10 -23 0 -25
-4 -25 -45z"/>
<path d="M2103 1034 c-4 -11 2 -23 17 -34 15 -11 19 -19 11 -24 -6 -4 -15 -4
-21 -1 -5 3 -10 1 -10 -4 0 -6 11 -11 25 -11 18 0 25 5 25 20 0 11 -7 23 -15
26 -20 8 -19 24 1 24 8 0 12 5 9 10 -10 16 -35 12 -42 -6z"/>
<path d="M2167 1043 c-4 -3 -7 -24 -7 -45 0 -37 1 -38 33 -37 23 1 26 3 10 6
-27 5 -31 30 -5 36 16 4 16 5 0 6 -21 1 -24 21 -4 21 8 0 18 5 21 10 7 11 -38
14 -48 3z"/>
<path d="M2230 1005 c0 -25 5 -45 11 -45 6 0 8 9 4 20 -4 12 -2 20 5 20 7 0
14 -9 17 -20 3 -11 9 -20 14 -20 12 0 11 17 -1 25 -7 4 -7 13 0 24 11 21 -5
41 -32 41 -15 0 -18 -8 -18 -45z"/>
<path d="M2301 1039 c-1 -22 19 -79 28 -79 10 0 34 80 27 87 -3 3 -8 -6 -12
-21 -8 -34 -20 -33 -32 2 -6 15 -11 20 -11 11z"/>
<path d="M2370 1006 c0 -25 5 -46 10 -46 6 0 10 18 10 39 0 22 -4 43 -10 46
-6 4 -10 -12 -10 -39z"/>
<path d="M2416 1034 c-19 -18 -21 -45 -4 -62 14 -14 58 -16 58 -4 0 5 -10 8
-22 8 -18 -1 -24 5 -26 27 -3 23 0 27 23 27 15 0 24 4 20 10 -9 15 -31 12 -49
-6z"/>
<path d="M2480 1005 l0 -46 57 3 c44 2 59 7 61 20 2 9 -5 19 -17 23 -24 7 -28
25 -6 25 8 0 15 5 15 10 0 16 -26 12 -41 -6 -12 -15 -11 -19 9 -32 33 -22 27
-32 -18 -32 -28 0 -40 4 -40 14 0 8 6 17 13 19 10 4 10 6 0 6 -18 1 -16 21 2
21 8 0 15 5 15 10 0 6 -11 10 -25 10 -23 0 -25 -4 -25 -45z"/>
<path d="M714 824 c3 -9 6 -29 6 -45 0 -37 16 -38 22 -1 3 15 9 36 13 47 8 18
7 18 -8 6 -11 -9 -17 -10 -17 -2 0 6 -5 11 -11 11 -6 0 -8 -7 -5 -16z"/>
<path d="M776 824 c-11 -29 -6 -53 13 -63 15 -8 20 -7 25 5 5 14 7 14 22 0 21
-22 31 -20 38 7 9 34 7 67 -4 67 -5 0 -10 -16 -10 -35 0 -47 -20 -45 -21 3 -1
33 -2 34 -9 12 l-8 -25 -7 23 c-8 26 -30 29 -39 6z"/>
<path d="M890 800 c0 -38 19 -59 21 -22 0 13 3 11 10 -6 5 -13 14 -20 19 -17
8 5 8 11 1 19 -7 9 -7 16 1 24 15 15 -7 42 -33 42 -15 0 -19 -8 -19 -40z"/>
<path d="M1020 801 c0 -42 19 -68 21 -29 1 17 3 18 6 6 8 -33 23 -18 23 22 0
43 -16 55 -23 18 l-4 -23 -2 23 c-2 39 -21 24 -21 -17z"/>
<path d="M1080 800 c0 -43 21 -63 43 -41 8 8 7 11 -6 11 -21 0 -19 39 3 57 13
10 11 12 -12 13 -26 0 -28 -3 -28 -40z"/>
<path d="M1145 818 c-13 -40 -2 -74 16 -48 6 11 11 12 17 3 4 -6 24 -14 46
-18 31 -6 38 -5 34 6 -3 8 -11 14 -19 14 -9 0 -15 13 -17 33 -4 44 -22 41 -23
-5 l-2 -38 -6 35 c-7 41 -35 52 -46 18z"/>
<path d="M1273 826 c13 -10 16 -21 12 -39 -4 -14 -2 -28 3 -31 5 -3 13 6 16
22 4 15 9 35 12 45 4 14 -1 17 -28 17 -30 -1 -31 -2 -15 -14z"/>
<path d="M1337 834 c-11 -11 -9 -72 3 -79 6 -3 10 4 11 17 l0 23 10 -24 c12
-30 15 -27 23 27 7 44 -7 58 -19 20 l-7 -23 -6 23 c-4 13 -10 20 -15 16z"/>
<path d="M1467 834 c-13 -13 -7 -61 8 -74 12 -10 16 -9 21 3 14 37 -8 91 -29
71z"/>
<path d="M1518 834 c-5 -4 -8 -20 -8 -34 0 -30 26 -59 39 -44 15 15 23 72 12
79 -7 4 -11 -5 -11 -24 0 -43 -18 -48 -22 -5 -2 20 -6 32 -10 28z"/>
<path d="M1581 798 c1 -24 4 -34 6 -24 5 18 6 18 25 -5 l20 -24 -6 27 c-4 17
-1 28 7 31 18 6 -10 37 -34 37 -16 0 -19 -7 -18 -42z"/>
<path d="M1710 801 c0 -23 5 -41 10 -41 6 0 10 7 10 15 0 8 7 15 16 15 25 0
13 44 -13 48 -21 3 -23 -1 -23 -37z"/>
<path d="M1775 800 c-1 -22 3 -40 7 -40 4 0 8 8 8 18 1 16 1 16 14 0 19 -25
21 -23 21 20 0 32 -3 37 -25 40 -23 3 -25 -1 -25 -38z"/>
<path d="M1840 801 c0 -22 5 -43 10 -46 6 -4 10 10 10 34 0 22 -4 43 -10 46
-6 4 -10 -10 -10 -34z"/>
<path d="M1874 827 c-10 -27 0 -62 19 -65 16 -3 18 2 15 34 -3 39 -24 57 -34
31z"/>
<path d="M1929 798 c3 -33 6 -38 11 -23 7 18 8 19 15 3 12 -29 20 -21 20 20 0
32 -3 37 -25 40 -24 3 -25 1 -21 -40z"/>
<path d="M1990 801 c0 -22 5 -43 10 -46 6 -4 10 10 10 34 0 22 -4 43 -10 46
-6 4 -10 -10 -10 -34z"/>
<path d="M2030 826 c6 -8 10 -25 9 -38 -2 -13 1 -25 6 -28 6 -3 11 10 13 28 2
17 7 32 13 32 5 0 9 5 9 10 0 6 -14 10 -31 10 -26 0 -29 -2 -19 -14z"/>
<path d="M2093 820 c4 -14 7 -35 7 -47 0 -13 5 -23 10 -23 6 0 10 9 10 21 0
11 5 29 11 41 6 11 7 23 3 26 -4 4 -9 1 -11 -6 -4 -10 -8 -10 -21 0 -13 11
-15 10 -9 -12z"/>
</g>
</svg>
